# xmcd CD database file
#
# Track frame offsets:
#	150
#	13215
#	21760
#	34835
#	48576
#	57839
#	68233
#	83949
#	94003
#	113053
#	125026
#	138459
#	150486
#	161453
#	170838
#	185285
#	195505
#	207220
#	224385
#	234318
#	244805
#	253501
#
# Disc length: 3484 seconds
#
# Revision: 1
# Processed by: cddbd v1.5PL3 Copyright (c) Steve Scherf et al.
# Submitted via: CDex 1.51
#
DISCID=330d9a16
DTITLE=Arthur Baum - Solo Jazz Piano
DYEAR=2002
DGENRE=Jazz
TTITLE0=Sophisticated Lady/I got it bad and that ain't good
TTITLE1=There will never be another you
TTITLE2=Long ago and far away/I'm old fashioned
TTITLE3=Don't get around much anymore/I let a song go out of my heart
TTITLE4=Skylark
TTITLE5=Our love is here to stay
TTITLE6=London by night
TTITLE7=Judy
TTITLE8=Stella by starlight/Lost in the stars
TTITLE9=Emily
TTITLE10=Georgia
TTITLE11=Nice work if you can get it/Love walked in/Soon
TTITLE12=Stars fell on Alabama
TTITLE13=Fascinatin' rhythm
TTITLE14=Charade
TTITLE15=The days of wine and roses
TTITLE16=Do nothin' 'til you here from me
TTITLE17=Smoke gets in your eyes/Yesterdays
TTITLE18=If I had you
TTITLE19=In the cool, cool, cool of the evening
TTITLE20=Someday my prince will come
TTITLE21=Back home in Indiana
EXTD=YEAR: 2002
EXTT0=
EXTT1=
EXTT2=
EXTT3=
EXTT4=
EXTT5=
EXTT6=
EXTT7=
EXTT8=
EXTT9=
EXTT10=
EXTT11=
EXTT12=
EXTT13=
EXTT14=
EXTT15=
EXTT16=
EXTT17=
EXTT18=
EXTT19=
EXTT20=
EXTT21=
PLAYORDER=
